# xmcd CD database file
#
# Track frame offsets:
#	150
#	12125
#	22995
#	37012
#	51951
#	75321
#	87386
#	107527
#	125420
#	154318
#	170058
#	185336
#	199691
#	211069
#	221131
#	255826
#	266493
#	279779
#
# Disc length: 4381 seconds
#
# Revision: 0
# Processed by: cddbd v1.5.1PL2 Copyright (c) Steve Scherf et al.
# Submitted via: CDex 1.51
#
DISCID=ea111b12
DTITLE=Sonny Rollins - Solid
DYEAR=2005
DGENRE=Jazz
TTITLE0=On A Slow Boat To China
TTITLE1=This Love Of Mine
TTITLE2=With A Song In My Heart
TTITLE3=In A Sentimental Mood
TTITLE4=The Way You Look Tonight
TTITLE5=Time On My Handy
TTITLE6=Movin' Out
TTITLE7=Silk 'N' Satin
TTITLE8=Solid
TTITLE9=No Moe
TTITLE10=Almost Like Being In Love
TTITLE11=Newk's Fadeaway
TTITLE12=I Know
TTITLE13=Scoops
TTITLE14=I Want To Be Happy
TTITLE15=Mambo Bounce
TTITLE16=The Stopper
TTITLE17=More Than You Know
EXTD=YEAR: 2005
EXTT0=
EXTT1=
EXTT2=
EXTT3=
EXTT4=
EXTT5=
EXTT6=
EXTT7=
EXTT8=
EXTT9=
EXTT10=
EXTT11=
EXTT12=
EXTT13=
EXTT14=
EXTT15=
EXTT16=
EXTT17=
PLAYORDER=
